<svg id="_5" data-name="5" xmlns="http://www.w3.org/2000/svg" xmlns:xlink="http://www.w3.org/1999/xlink" viewBox="0 0 500 500"><defs><style>.cls-1{fill:none;}.cls-2{fill:#daf7a6;}.cls-3{fill:url(#linear-gradient);}.cls-4{fill:url(#linear-gradient-2);}.cls-5{fill:url(#linear-gradient-3);}.cls-6{fill:url(#linear-gradient-4);}.cls-7{fill:url(#linear-gradient-5);}.cls-8{fill:url(#linear-gradient-6);}.cls-9{fill:url(#linear-gradient-7);}.cls-10{fill:url(#linear-gradient-8);}.cls-11{fill:url(#linear-gradient-9);}.cls-12{fill:url(#linear-gradient-10);}.cls-13{fill:url(#linear-gradient-11);}.cls-14{fill:url(#linear-gradient-12);}.cls-15{fill:url(#linear-gradient-13);}.cls-16{fill:url(#linear-gradient-14);}.cls-17{fill:url(#linear-gradient-15);}.cls-18{fill:url(#linear-gradient-16);}.cls-19{fill:url(#linear-gradient-17);}.cls-20{fill:url(#linear-gradient-18);}.cls-21{fill:url(#linear-gradient-19);}.cls-22{fill:url(#linear-gradient-20);}.cls-23{fill:url(#linear-gradient-21);}.cls-24{fill:url(#linear-gradient-22);}.cls-25{fill:url(#linear-gradient-23);}.cls-26{fill:url(#linear-gradient-24);}.cls-27{fill:url(#linear-gradient-25);}.cls-28{fill:url(#linear-gradient-26);}.cls-29{fill:url(#linear-gradient-27);}.cls-30{fill:url(#linear-gradient-28);}.cls-31{fill:url(#linear-gradient-29);}.cls-32{fill:url(#linear-gradient-30);}.cls-33{fill:url(#linear-gradient-31);}.cls-34{fill:url(#linear-gradient-32);}.cls-35{fill:url(#linear-gradient-33);}.cls-36{fill:url(#linear-gradient-34);}.cls-37{fill:url(#linear-gradient-35);}.cls-38{fill:url(#linear-gradient-36);}.cls-39{fill:url(#linear-gradient-37);}.cls-40{fill:url(#linear-gradient-38);}.cls-41{fill:url(#linear-gradient-39);}.cls-42{fill:url(#linear-gradient-40);}.cls-43{fill:url(#linear-gradient-41);}.cls-44{fill:url(#linear-gradient-42);}.cls-45{fill:url(#linear-gradient-43);}.cls-46{fill:url(#linear-gradient-44);}.cls-47{fill:url(#linear-gradient-45);}.cls-48{fill:url(#linear-gradient-46);}.cls-49{clip-path:url(#clip-path);}.cls-50{fill:url(#linear-gradient-47);}.cls-51{fill:url(#linear-gradient-48);}.cls-52{fill:url(#linear-gradient-49);}.cls-53{fill:url(#linear-gradient-50);}.cls-54{fill:url(#linear-gradient-51);}.cls-55{fill:url(#linear-gradient-52);}.cls-56{fill:url(#linear-gradient-53);}.cls-57{fill:url(#linear-gradient-54);}.cls-58{fill:url(#linear-gradient-55);}.cls-59{fill:url(#linear-gradient-56);}.cls-60{fill:url(#linear-gradient-57);}.cls-61{fill:url(#linear-gradient-58);}.cls-62{fill:url(#linear-gradient-59);}.cls-63{fill:url(#linear-gradient-60);}.cls-64{fill:url(#linear-gradient-61);}.cls-65{fill:url(#linear-gradient-62);}.cls-66{fill:url(#linear-gradient-63);}.cls-67{fill:url(#linear-gradient-64);}.cls-68{fill:url(#linear-gradient-65);}.cls-69{fill:url(#linear-gradient-66);}.cls-70{fill:url(#linear-gradient-67);}.cls-71{fill:url(#linear-gradient-68);}.cls-72{fill:url(#linear-gradient-69);}.cls-73{fill:url(#linear-gradient-70);}.cls-74{fill:url(#linear-gradient-71);}.cls-75{fill:url(#linear-gradient-72);}.cls-76{fill:url(#linear-gradient-73);}.cls-77{fill:url(#linear-gradient-74);}.cls-78{fill:url(#linear-gradient-75);}.cls-79{fill:url(#linear-gradient-76);}.cls-80{fill:url(#linear-gradient-77);}.cls-81{fill:url(#linear-gradient-78);}.cls-82{fill:url(#linear-gradient-79);}.cls-83{fill:url(#linear-gradient-80);}.cls-84{fill:url(#linear-gradient-81);}.cls-85{fill:url(#linear-gradient-82);}.cls-86{fill:url(#linear-gradient-83);}.cls-87{fill:url(#linear-gradient-84);}.cls-88{fill:url(#linear-gradient-85);}.cls-89{fill:url(#linear-gradient-86);}.cls-90{fill:url(#linear-gradient-87);}.cls-91{fill:url(#linear-gradient-88);}.cls-92{fill:url(#linear-gradient-89);}.cls-93{fill:url(#linear-gradient-90);}.cls-94{fill:url(#linear-gradient-91);}.cls-95{fill:url(#linear-gradient-92);}</style><linearGradient id="linear-gradient" x1="214.55" y1="364.2" x2="421.48" y2="157.26" gradientUnits="userSpaceOnUse"><stop offset="0" stop-color="#436cc4"/><stop offset="1" stop-color="#c512d4"/></linearGradient><linearGradient id="linear-gradient-2" x1="214.86" y1="364.52" x2="421.85" y2="157.53" xlink:href="#linear-gradient"/><linearGradient id="linear-gradient-3" x1="142.39" y1="292.08" x2="349.37" y2="85.09" xlink:href="#linear-gradient"/><linearGradient id="linear-gradient-4" x1="134.63" y1="284.31" x2="341.6" y2="77.34" xlink:href="#linear-gradient"/><linearGradient id="linear-gradient-5" x1="150.15" y1="299.84" x2="357.13" y2="92.86" xlink:href="#linear-gradient"/><linearGradient id="linear-gradient-6" x1="126.87" y1="276.54" x2="333.83" y2="69.59" xlink:href="#linear-gradient"/><linearGradient id="linear-gradient-7" x1="119.12" y1="268.76" x2="326.05" y2="61.83" xlink:href="#linear-gradient"/><linearGradient id="linear-gradient-8" x1="111.36" y1="261" x2="318.29" y2="54.07" xlink:href="#linear-gradient"/><linearGradient id="linear-gradient-9" x1="173.47" y1="323.11" x2="380.38" y2="116.2" xlink:href="#linear-gradient"/><linearGradient id="linear-gradient-10" x1="188.99" y1="338.65" x2="395.95" y2="131.69" xlink:href="#linear-gradient"/><linearGradient id="linear-gradient-11" x1="157.93" y1="307.59" x2="364.89" y2="100.64" xlink:href="#linear-gradient"/><linearGradient id="linear-gradient-12" x1="204.52" y1="354.17" x2="411.45" y2="147.24" xlink:href="#linear-gradient"/><linearGradient id="linear-gradient-13" x1="196.75" y1="346.41" x2="403.71" y2="139.45" xlink:href="#linear-gradient"/><linearGradient id="linear-gradient-14" x1="181.22" y1="330.89" x2="388.21" y2="123.9" xlink:href="#linear-gradient"/><linearGradient id="linear-gradient-15" x1="165.69" y1="315.36" x2="372.67" y2="108.38" xlink:href="#linear-gradient"/><linearGradient id="linear-gradient-16" x1="101.1" y1="250.76" x2="308.04" y2="43.81" xlink:href="#linear-gradient"/><linearGradient id="linear-gradient-17" x1="219.02" y1="368.67" x2="425.96" y2="161.72" xlink:href="#linear-gradient"/><linearGradient id="linear-gradient-18" x1="193.15" y1="342.8" x2="400.08" y2="135.87" xlink:href="#linear-gradient"/><linearGradient id="linear-gradient-19" x1="169.85" y1="319.5" x2="376.79" y2="112.56" xlink:href="#linear-gradient"/><linearGradient id="linear-gradient-20" x1="177.62" y1="327.26" x2="384.55" y2="120.33" xlink:href="#linear-gradient"/><linearGradient id="linear-gradient-21" x1="185.38" y1="335.04" x2="392.34" y2="128.07" xlink:href="#linear-gradient"/><linearGradient id="linear-gradient-22" x1="115.49" y1="265.17" x2="322.45" y2="58.21" xlink:href="#linear-gradient"/><linearGradient id="linear-gradient-23" x1="200.9" y1="350.56" x2="407.86" y2="143.61" xlink:href="#linear-gradient"/><linearGradient id="linear-gradient-24" x1="208.67" y1="358.32" x2="415.6" y2="151.39" xlink:href="#linear-gradient"/><linearGradient id="linear-gradient-25" x1="162.1" y1="311.74" x2="369.02" y2="104.82" xlink:href="#linear-gradient"/><linearGradient id="linear-gradient-26" x1="131.02" y1="280.7" x2="337.99" y2="73.73" xlink:href="#linear-gradient"/><linearGradient id="linear-gradient-27" x1="138.79" y1="288.46" x2="345.75" y2="81.5" xlink:href="#linear-gradient"/><linearGradient id="linear-gradient-28" x1="146.55" y1="296.22" x2="353.51" y2="89.26" xlink:href="#linear-gradient"/><linearGradient id="linear-gradient-29" x1="154.32" y1="303.98" x2="361.27" y2="97.03" xlink:href="#linear-gradient"/><linearGradient id="linear-gradient-30" x1="123.25" y1="272.94" x2="330.22" y2="65.97" xlink:href="#linear-gradient"/><linearGradient id="linear-gradient-31" x1="105.25" y1="254.91" x2="312.19" y2="47.97" xlink:href="#linear-gradient"/><linearGradient id="linear-gradient-32" x1="224.2" y1="373.85" x2="431.15" y2="166.91" xlink:href="#linear-gradient"/><linearGradient id="linear-gradient-33" x1="143.98" y1="293.65" x2="350.94" y2="86.69" xlink:href="#linear-gradient"/><linearGradient id="linear-gradient-34" x1="151.75" y1="301.39" x2="358.68" y2="94.47" xlink:href="#linear-gradient"/><linearGradient id="linear-gradient-35" x1="159.51" y1="309.17" x2="366.46" y2="102.22" xlink:href="#linear-gradient"/><linearGradient id="linear-gradient-36" x1="167.28" y1="316.93" x2="374.22" y2="109.99" xlink:href="#linear-gradient"/><linearGradient id="linear-gradient-37" x1="136.22" y1="285.88" x2="343.17" y2="78.93" xlink:href="#linear-gradient"/><linearGradient id="linear-gradient-38" x1="120.68" y1="270.35" x2="327.64" y2="63.4" xlink:href="#linear-gradient"/><linearGradient id="linear-gradient-39" x1="128.45" y1="278.12" x2="335.4" y2="71.16" xlink:href="#linear-gradient"/><linearGradient id="linear-gradient-40" x1="206.09" y1="355.75" x2="413.05" y2="148.8" xlink:href="#linear-gradient"/><linearGradient id="linear-gradient-41" x1="213.86" y1="363.51" x2="420.79" y2="156.58" xlink:href="#linear-gradient"/><linearGradient id="linear-gradient-42" x1="198.34" y1="347.98" x2="405.26" y2="141.06" xlink:href="#linear-gradient"/><linearGradient id="linear-gradient-43" x1="175.04" y1="324.7" x2="381.99" y2="117.75" xlink:href="#linear-gradient"/><linearGradient id="linear-gradient-44" x1="182.81" y1="332.45" x2="389.73" y2="125.53" xlink:href="#linear-gradient"/><linearGradient id="linear-gradient-45" x1="190.57" y1="340.22" x2="397.51" y2="133.28" xlink:href="#linear-gradient"/><linearGradient id="linear-gradient-46" x1="110.44" y1="260.11" x2="317.39" y2="53.15" xlink:href="#linear-gradient"/><clipPath id="clip-path"><polyline class="cls-1" points="178.18 359.32 179.22 124.78 75.83 124.78 76.87 357.76"/></clipPath><linearGradient id="linear-gradient-47" x1="69.6" y1="365.76" x2="276.53" y2="158.82" xlink:href="#linear-gradient"/><linearGradient id="linear-gradient-48" x1="69.91" y1="366.07" x2="276.9" y2="159.08" xlink:href="#linear-gradient"/><linearGradient id="linear-gradient-49" x1="-2.56" y1="293.64" x2="204.42" y2="86.65" xlink:href="#linear-gradient"/><linearGradient id="linear-gradient-50" x1="-10.32" y1="285.87" x2="196.65" y2="78.9" xlink:href="#linear-gradient"/><linearGradient id="linear-gradient-51" x1="5.21" y1="301.39" x2="212.18" y2="94.42" xlink:href="#linear-gradient"/><linearGradient id="linear-gradient-52" x1="-18.08" y1="278.1" x2="188.88" y2="71.14" xlink:href="#linear-gradient"/><linearGradient id="linear-gradient-53" x1="-25.83" y1="270.32" x2="181.1" y2="63.39" xlink:href="#linear-gradient"/><linearGradient id="linear-gradient-54" x1="-33.59" y1="262.56" x2="173.34" y2="55.63" xlink:href="#linear-gradient"/><linearGradient id="linear-gradient-55" x1="28.52" y1="324.66" x2="235.43" y2="117.76" xlink:href="#linear-gradient"/><linearGradient id="linear-gradient-56" x1="44.04" y1="340.21" x2="251" y2="133.24" xlink:href="#linear-gradient"/><linearGradient id="linear-gradient-57" x1="12.98" y1="309.15" x2="219.94" y2="102.2" xlink:href="#linear-gradient"/><linearGradient id="linear-gradient-58" x1="59.57" y1="355.73" x2="266.5" y2="148.8" xlink:href="#linear-gradient"/><linearGradient id="linear-gradient-59" x1="51.8" y1="347.97" x2="258.76" y2="141.01" xlink:href="#linear-gradient"/><linearGradient id="linear-gradient-60" x1="36.27" y1="332.45" x2="243.26" y2="125.46" xlink:href="#linear-gradient"/><linearGradient id="linear-gradient-61" x1="20.74" y1="316.92" x2="227.72" y2="109.94" xlink:href="#linear-gradient"/><linearGradient id="linear-gradient-62" x1="-43.85" y1="252.32" x2="163.09" y2="45.37" xlink:href="#linear-gradient"/><linearGradient id="linear-gradient-63" x1="74.07" y1="370.23" x2="281.02" y2="163.28" xlink:href="#linear-gradient"/><linearGradient id="linear-gradient-64" x1="48.2" y1="344.35" x2="255.13" y2="137.42" xlink:href="#linear-gradient"/><linearGradient id="linear-gradient-65" x1="24.9" y1="321.06" x2="231.84" y2="114.12" xlink:href="#linear-gradient"/><linearGradient id="linear-gradient-66" x1="32.67" y1="328.82" x2="239.6" y2="121.89" xlink:href="#linear-gradient"/><linearGradient id="linear-gradient-67" x1="40.43" y1="336.6" x2="247.4" y2="129.63" xlink:href="#linear-gradient"/><linearGradient id="linear-gradient-68" x1="-29.45" y1="266.72" x2="177.5" y2="59.77" xlink:href="#linear-gradient"/><linearGradient id="linear-gradient-69" x1="55.96" y1="352.12" x2="262.91" y2="145.17" xlink:href="#linear-gradient"/><linearGradient id="linear-gradient-70" x1="63.72" y1="359.88" x2="270.65" y2="152.95" xlink:href="#linear-gradient"/><linearGradient id="linear-gradient-71" x1="17.15" y1="313.3" x2="224.07" y2="106.37" xlink:href="#linear-gradient"/><linearGradient id="linear-gradient-72" x1="-13.93" y1="282.26" x2="193.04" y2="75.29" xlink:href="#linear-gradient"/><linearGradient id="linear-gradient-73" x1="-6.16" y1="290.02" x2="200.8" y2="83.06" xlink:href="#linear-gradient"/><linearGradient id="linear-gradient-74" x1="1.6" y1="297.78" x2="208.56" y2="90.82" xlink:href="#linear-gradient"/><linearGradient id="linear-gradient-75" x1="9.37" y1="305.54" x2="216.32" y2="98.58" xlink:href="#linear-gradient"/><linearGradient id="linear-gradient-76" x1="-21.7" y1="274.5" x2="185.27" y2="67.53" xlink:href="#linear-gradient"/><linearGradient id="linear-gradient-77" x1="-39.7" y1="256.47" x2="167.25" y2="49.53" xlink:href="#linear-gradient"/><linearGradient id="linear-gradient-78" x1="79.25" y1="375.41" x2="286.2" y2="168.47" xlink:href="#linear-gradient"/><linearGradient id="linear-gradient-79" x1="-0.97" y1="295.21" x2="205.99" y2="88.25" xlink:href="#linear-gradient"/><linearGradient id="linear-gradient-80" x1="6.81" y1="302.95" x2="213.73" y2="96.03" xlink:href="#linear-gradient"/><linearGradient id="linear-gradient-81" x1="14.56" y1="310.73" x2="221.51" y2="103.77" xlink:href="#linear-gradient"/><linearGradient id="linear-gradient-82" x1="22.33" y1="318.49" x2="229.27" y2="111.55" xlink:href="#linear-gradient"/><linearGradient id="linear-gradient-83" x1="-8.73" y1="287.44" x2="198.22" y2="80.49" xlink:href="#linear-gradient"/><linearGradient id="linear-gradient-84" x1="-24.26" y1="271.91" x2="182.69" y2="64.96" xlink:href="#linear-gradient"/><linearGradient id="linear-gradient-85" x1="-16.5" y1="279.68" x2="190.45" y2="72.72" xlink:href="#linear-gradient"/><linearGradient id="linear-gradient-86" x1="61.15" y1="357.31" x2="268.1" y2="150.36" xlink:href="#linear-gradient"/><linearGradient id="linear-gradient-87" x1="68.91" y1="365.07" x2="275.85" y2="158.14" xlink:href="#linear-gradient"/><linearGradient id="linear-gradient-88" x1="53.39" y1="349.54" x2="260.32" y2="142.62" xlink:href="#linear-gradient"/><linearGradient id="linear-gradient-89" x1="30.09" y1="326.26" x2="237.04" y2="119.31" xlink:href="#linear-gradient"/><linearGradient id="linear-gradient-90" x1="37.86" y1="334.01" x2="244.78" y2="127.09" xlink:href="#linear-gradient"/><linearGradient id="linear-gradient-91" x1="45.62" y1="341.78" x2="252.57" y2="134.84" xlink:href="#linear-gradient"/><linearGradient id="linear-gradient-92" x1="-34.51" y1="261.67" x2="172.44" y2="54.71" xlink:href="#linear-gradient"/></defs><rect class="cls-2" width="500" height="500"/><path class="cls-3" d="M324.34,296.26V266.61H407V209.74H324.34V183.93h96.78V123.22H255.62v.22a3.22,3.22,0,0,0-3.24.69,3.13,3.13,0,0,0,2.2,5.33,2.83,2.83,0,0,0,1-.2v14.65a3.25,3.25,0,0,0-1-.19,3.12,3.12,0,0,0,0,6.24,3.25,3.25,0,0,0,1-.19v9.66a3.25,3.25,0,0,0-1-.19,3.12,3.12,0,0,0,0,6.24,3.25,3.25,0,0,0,1-.19V175a3.25,3.25,0,0,0-1-.19,3.12,3.12,0,0,0,0,6.24,3.25,3.25,0,0,0,1-.19v9.67a3,3,0,0,0-1-.19,3.12,3.12,0,1,0,0,6.23,3,3,0,0,0,1-.19V206a3.25,3.25,0,0,0-1-.19,3.12,3.12,0,1,0,0,6.23,3.24,3.24,0,0,0,1-.18v9.67a3,3,0,0,0-1-.2,3.12,3.12,0,0,0,0,6.24,3.25,3.25,0,0,0,1-.19v9.68a3.25,3.25,0,0,0-1-.19,3.12,3.12,0,0,0,0,6.24,3.25,3.25,0,0,0,1-.19v9.67a3,3,0,0,0-1-.19,3.12,3.12,0,1,0,0,6.23,3,3,0,0,0,1-.19v9.67a3,3,0,0,0-1-.19,3.12,3.12,0,1,0,0,6.23,3.24,3.24,0,0,0,1-.18v9.68a3,3,0,0,0-1-.19,3.12,3.12,0,1,0,0,6.23,3,3,0,0,0,1-.19v9.67a3.25,3.25,0,0,0-1-.19,3.12,3.12,0,0,0,0,6.24,3.25,3.25,0,0,0,1-.19v9.67a3,3,0,0,0-1-.19,3.12,3.12,0,1,0,0,6.23,3,3,0,0,0,1-.19v9.67a3.25,3.25,0,0,0-1-.19,3.12,3.12,0,1,0,0,6.23,3,3,0,0,0,1-.19V351a3.22,3.22,0,0,0-3.24.69,3.16,3.16,0,0,0-.92,2.21,3.12,3.12,0,0,0,3.12,3.11,3.3,3.3,0,0,0,1-.19V357H424V296.26Z"/><path class="cls-4" d="M225,353.3a.83.83,0,0,0-.22.55.86.86,0,0,0,.22.56.82.82,0,0,0,.54.23.85.85,0,0,0,.56-.23.81.81,0,0,0,0-1.11A.81.81,0,0,0,225,353.3Z"/><circle class="cls-5" cx="225.51" cy="208.95" r="0.78"/><circle class="cls-6" cx="225.51" cy="193.42" r="0.78"/><circle class="cls-7" cx="225.51" cy="224.47" r="0.78"/><circle class="cls-8" cx="225.51" cy="177.9" r="0.78"/><circle class="cls-9" cx="225.51" cy="162.36" r="0.78"/><circle class="cls-10" cx="225.51" cy="146.84" r="0.78"/><circle class="cls-11" cx="225.51" cy="271.06" r="0.78"/><circle class="cls-12" cx="225.51" cy="302.12" r="0.78"/><circle class="cls-13" cx="225.51" cy="240.01" r="0.78"/><path class="cls-14" d="M225.51,332.39a.79.79,0,0,0,0,1.57.79.79,0,0,0,0-1.57Z"/><circle class="cls-15" cx="225.51" cy="317.64" r="0.78"/><circle class="cls-16" cx="225.51" cy="286.6" r="0.78"/><circle class="cls-17" cx="225.51" cy="255.53" r="0.78"/><path class="cls-18" d="M225,125.78a.88.88,0,0,0-.24.56.84.84,0,0,0,.24.55.82.82,0,0,0,.54.23.85.85,0,0,0,.56-.23.84.84,0,0,0,.24-.55.88.88,0,0,0-.24-.56A.81.81,0,0,0,225,125.78Z"/><path class="cls-19" d="M232.73,352.76a1.5,1.5,0,0,0-.47,1.09,1.59,1.59,0,0,0,1.56,1.57,1.55,1.55,0,0,0,1.1-.46,1.52,1.52,0,0,0,.46-1.11,1.49,1.49,0,0,0-.46-1.09A1.59,1.59,0,0,0,232.73,352.76Z"/><circle class="cls-20" cx="233.82" cy="302.12" r="1.56"/><circle class="cls-21" cx="233.82" cy="255.53" r="1.56"/><circle class="cls-22" cx="233.82" cy="271.06" r="1.56"/><circle class="cls-23" cx="233.82" cy="286.6" r="1.56"/><circle class="cls-24" cx="233.82" cy="146.84" r="1.56"/><circle class="cls-25" cx="233.82" cy="317.64" r="1.56"/><circle class="cls-26" cx="233.82" cy="333.17" r="1.56"/><circle class="cls-27" cx="233.82" cy="240.01" r="1.56"/><circle class="cls-28" cx="233.82" cy="177.9" r="1.56"/><circle class="cls-29" cx="233.82" cy="193.42" r="1.56"/><circle class="cls-30" cx="233.82" cy="208.95" r="1.56"/><circle class="cls-31" cx="233.82" cy="224.47" r="1.56"/><circle class="cls-32" cx="233.82" cy="162.36" r="1.56"/><path class="cls-33" d="M232.73,125.24a1.57,1.57,0,0,0,1.09,2.66,1.52,1.52,0,0,0,1.1-.47,1.53,1.53,0,0,0,0-2.19A1.6,1.6,0,0,0,232.73,125.24Z"/><path class="cls-34" d="M242.55,352.2a2.33,2.33,0,0,0-.69,1.65,2.34,2.34,0,1,0,4.68,0,2.33,2.33,0,0,0-.69-1.65A2.43,2.43,0,0,0,242.55,352.2Z"/><circle class="cls-35" cx="244.2" cy="193.42" r="2.34"/><circle class="cls-36" cx="244.2" cy="208.95" r="2.34"/><circle class="cls-37" cx="244.2" cy="224.47" r="2.34"/><circle class="cls-38" cx="244.2" cy="240.01" r="2.34"/><circle class="cls-39" cx="244.2" cy="177.9" r="2.34"/><circle class="cls-40" cx="244.2" cy="146.84" r="2.34"/><circle class="cls-41" cx="244.2" cy="162.36" r="2.34"/><circle class="cls-42" cx="244.2" cy="317.64" r="2.34"/><path class="cls-43" d="M244.2,330.83a2.34,2.34,0,1,0,2.34,2.35A2.35,2.35,0,0,0,244.2,330.83Z"/><circle class="cls-44" cx="244.2" cy="302.12" r="2.34"/><circle class="cls-45" cx="244.2" cy="255.53" r="2.34"/><circle class="cls-46" cx="244.2" cy="271.06" r="2.34"/><circle class="cls-47" cx="244.2" cy="286.6" r="2.34"/><path class="cls-48" d="M242.55,124.69a2.3,2.3,0,0,0-.69,1.65,2.34,2.34,0,1,0,4.68,0,2.3,2.3,0,0,0-.69-1.65A2.41,2.41,0,0,0,242.55,124.69Z"/><g class="cls-49"><path class="cls-50" d="M179.39,297.82V268.17h82.68V211.3H179.39V185.49h96.78V124.78H110.67V125a3.2,3.2,0,0,0-3.23.69,3.08,3.08,0,0,0,0,4.41,3.11,3.11,0,0,0,2.19.92,3.05,3.05,0,0,0,1-.2v14.65a3,3,0,0,0-1-.19,3.12,3.12,0,1,0,0,6.23,3.2,3.2,0,0,0,1-.18V161a3.2,3.2,0,0,0-1-.19,3.12,3.12,0,1,0,0,6.24,3.2,3.2,0,0,0,1-.19v9.68a3.2,3.2,0,0,0-1-.19,3.12,3.12,0,1,0,0,6.24,3.2,3.2,0,0,0,1-.19v9.67a3,3,0,0,0-1-.19,3.12,3.12,0,1,0,0,6.23,3.2,3.2,0,0,0,1-.19v9.67a3,3,0,0,0-1-.19,3.12,3.12,0,1,0,0,6.23,3,3,0,0,0,1-.19v9.67a3.2,3.2,0,0,0-1-.19,3.12,3.12,0,1,0,0,6.24,3.2,3.2,0,0,0,1-.19v9.68a3.2,3.2,0,0,0-1-.19,3.12,3.12,0,1,0,0,6.24,3.2,3.2,0,0,0,1-.19v9.67a3,3,0,0,0-1-.19,3.12,3.12,0,1,0,0,6.23,3,3,0,0,0,1-.19v9.67a3,3,0,0,0-1-.19,3.12,3.12,0,1,0,0,6.23,3,3,0,0,0,1-.19v9.69a3,3,0,0,0-1-.19,3.12,3.12,0,1,0,0,6.23,3,3,0,0,0,1-.19v9.67a3.2,3.2,0,0,0-1-.19,3.12,3.12,0,1,0,0,6.24,3,3,0,0,0,1-.2v9.68a3,3,0,0,0-1-.19,3.12,3.12,0,1,0,0,6.23,3,3,0,0,0,1-.19v9.67a3,3,0,0,0-1-.19,3.12,3.12,0,1,0,0,6.23,3,3,0,0,0,1-.19v14.87a3.2,3.2,0,0,0-3.23.69,3.08,3.08,0,0,0,0,4.41,3.09,3.09,0,0,0,2.19.9,3.29,3.29,0,0,0,1-.18v.19H279.05V297.82Z"/><path class="cls-51" d="M80,354.86a.83.83,0,0,0-.22.55.77.77,0,0,0,.76.79.83.83,0,0,0,.56-.23.78.78,0,0,0-1.1-1.11Z"/><circle class="cls-52" cx="80.56" cy="210.51" r="0.78"/><circle class="cls-53" cx="80.56" cy="194.98" r="0.78"/><circle class="cls-54" cx="80.56" cy="226.03" r="0.78"/><circle class="cls-55" cx="80.56" cy="179.46" r="0.78"/><circle class="cls-56" cx="80.56" cy="163.92" r="0.78"/><circle class="cls-57" cx="80.56" cy="148.4" r="0.78"/><circle class="cls-58" cx="80.56" cy="272.62" r="0.78"/><circle class="cls-59" cx="80.56" cy="303.68" r="0.78"/><circle class="cls-60" cx="80.56" cy="241.57" r="0.78"/><path class="cls-61" d="M80.56,334a.78.78,0,0,0-.77.78.78.78,0,1,0,1.55,0A.77.77,0,0,0,80.56,334Z"/><circle class="cls-62" cx="80.56" cy="319.2" r="0.78"/><circle class="cls-63" cx="80.56" cy="288.15" r="0.78"/><circle class="cls-64" cx="80.56" cy="257.09" r="0.78"/><path class="cls-65" d="M80,127.34a.87.87,0,0,0-.23.56.85.85,0,0,0,.23.55.86.86,0,0,0,.54.23.83.83,0,0,0,.56-.23.81.81,0,0,0,.24-.55.83.83,0,0,0-.24-.56A.8.8,0,0,0,80,127.34Z"/><path class="cls-66" d="M87.78,354.32a1.51,1.51,0,0,0,0,2.19,1.51,1.51,0,0,0,1.09.47,1.56,1.56,0,0,0,1.11-.47,1.56,1.56,0,0,0,0-2.19A1.59,1.59,0,0,0,87.78,354.32Z"/><circle class="cls-67" cx="88.87" cy="303.68" r="1.56"/><circle class="cls-68" cx="88.87" cy="257.09" r="1.56"/><circle class="cls-69" cx="88.87" cy="272.62" r="1.56"/><circle class="cls-70" cx="88.87" cy="288.15" r="1.56"/><circle class="cls-71" cx="88.87" cy="148.4" r="1.56"/><circle class="cls-72" cx="88.87" cy="319.2" r="1.56"/><circle class="cls-73" cx="88.87" cy="334.73" r="1.56"/><circle class="cls-74" cx="88.87" cy="241.57" r="1.56"/><circle class="cls-75" cx="88.87" cy="179.46" r="1.56"/><circle class="cls-76" cx="88.87" cy="194.98" r="1.56"/><circle class="cls-77" cx="88.87" cy="210.51" r="1.56"/><circle class="cls-78" cx="88.87" cy="226.03" r="1.56"/><circle class="cls-79" cx="88.87" cy="163.92" r="1.56"/><path class="cls-80" d="M87.78,126.8a1.57,1.57,0,0,0,1.09,2.66A1.56,1.56,0,0,0,90,129a1.56,1.56,0,0,0,0-2.19A1.61,1.61,0,0,0,87.78,126.8Z"/><path class="cls-81" d="M97.6,353.76a2.35,2.35,0,0,0,1.65,4,2.3,2.3,0,0,0,1.65-.69,2.33,2.33,0,0,0,0-3.31A2.43,2.43,0,0,0,97.6,353.76Z"/><circle class="cls-82" cx="99.25" cy="194.98" r="2.34"/><circle class="cls-83" cx="99.25" cy="210.51" r="2.34"/><circle class="cls-84" cx="99.25" cy="226.03" r="2.34"/><circle class="cls-85" cx="99.25" cy="241.57" r="2.34"/><circle class="cls-86" cx="99.25" cy="179.46" r="2.34"/><circle class="cls-87" cx="99.25" cy="148.4" r="2.34"/><circle class="cls-88" cx="99.25" cy="163.92" r="2.34"/><circle class="cls-89" cx="99.25" cy="319.2" r="2.34"/><path class="cls-90" d="M99.25,332.39a2.34,2.34,0,1,0,2.34,2.35A2.35,2.35,0,0,0,99.25,332.39Z"/><circle class="cls-91" cx="99.25" cy="303.68" r="2.34"/><circle class="cls-92" cx="99.25" cy="257.09" r="2.34"/><circle class="cls-93" cx="99.25" cy="272.62" r="2.34"/><circle class="cls-94" cx="99.25" cy="288.15" r="2.34"/><path class="cls-95" d="M97.6,126.25a2.3,2.3,0,0,0-.69,1.65,2.36,2.36,0,0,0,2.34,2.34,2.3,2.3,0,0,0,1.65-.69,2.33,2.33,0,0,0,.69-1.65,2.3,2.3,0,0,0-.69-1.65A2.41,2.41,0,0,0,97.6,126.25Z"/></g></svg>